<?xml version="1.0" encoding="UTF-8" standalone="no"?>
<svg width="107px" height="15px" viewBox="0 0 107 15" version="1.1" xmlns="http://www.w3.org/2000/svg" xmlns:xlink="http://www.w3.org/1999/xlink" xmlns:sketch="http://www.bohemiancoding.com/sketch/ns">
    <!-- Generator: Sketch 3.4.4 (17249) - http://www.bohemiancoding.com/sketch -->
    <title>Uber_Logotype_Print_CMYK_White</title>
    <desc>Created with Sketch.</desc>
    <defs>
        <path id="path-1" d="M0.0124902724,0 L106.855529,0 L106.855529,14.9875 L0.0124902724,14.9875"></path>
    </defs>
    <g id="Page-1" stroke="none" stroke-width="1" fill="none" fill-rule="evenodd" sketch:type="MSPage">
        <g id="Start" sketch:type="MSLayerGroup" transform="translate(-351.000000, -191.000000)">
            <g id="Uber_Logotype_Print_CMYK_White" transform="translate(351.000000, 191.000000)">
                <g id="Group-5">
                    <mask id="mask-2" sketch:name="Clip 2" fill="white">
                        <use xlink:href="#path-1"></use>
                    </mask>
                    <g id="Clip-2"></g>
                    <path d="M13.9918113,0.0354166667 L13.9918113,8.60270833 C13.9918113,11.5341667 12.578537,13.2666667 8.33475875,13.2666667 C4.0782821,13.2666667 2.65792996,11.5341667 2.65792996,8.60270833 L2.65792996,2.58020833 C2.60318093,1.15270833 1.43450778,0.00541666667 0,0.00541666667 L0,1.66875 C0.520219844,1.66875 0.933023346,2.073125 0.982568093,2.58020833 L0.982568093,9.18791667 C0.982568093,12.5839583 3.64424514,14.9975 8.33475875,14.9975 C13.0179864,14.9975 15.6690467,12.5839583 15.6690467,9.18791667 L15.6690467,0.0354166667 L13.9918113,0.0354166667" id="Fill-1" fill="#FFFFFF" sketch:type="MSShapeGroup" mask="url(#mask-2)"></path>
                    <path d="M62.7186537,13.02375 L62.7186537,9.010625 C62.7186537,8.45895833 63.1864144,8.006875 63.7287004,7.99625 L71.0363424,7.99625 L71.0363424,6.304375 L63.703928,6.304375 C63.3494125,6.315 63.0215428,6.38583333 62.7186537,6.51729167 L62.7186537,1.68291667 L74.6441576,1.68291667 L74.6441576,0 L61.0245564,0 L61.0245564,14.7066667 L75.1404377,14.7066667 L75.1404377,13.02375 L62.7186537,13.02375" id="Fill-3" fill="#FFFFFF" sketch:type="MSShapeGroup" mask="url(#mask-2)"></path>
                    <path d="M92.9507335,7.36666667 C92.5962179,7.36666667 92.2612704,7.439375 91.9513035,7.56520833 L91.9371479,1.58729167 L101.144352,1.58375 C102.742691,1.58375 104.034601,2.87291667 104.034601,4.474375 C104.034601,6.07395833 102.742691,7.37208333 101.144352,7.37208333 L92.9507335,7.36666667 L92.9507335,7.36666667 Z M105.825914,13.1266667 C105.422062,13.4510417 104.846053,13.3854167 104.495284,13.013125 L101.280912,8.92895833 C103.681959,8.85458333 105.602755,6.88604167 105.602755,4.47083333 C105.602755,1.99854167 103.602021,0 101.135609,0 L90.2555409,0 L90.2555409,14.7066667 L91.9371479,14.7066667 L91.9529689,9.915 C91.9706634,9.38125 92.4226031,8.93604167 92.968428,8.93604167 L99.1563171,8.93791667 L103.176936,14.046875 C104.10184,15.1410417 105.726825,15.32375 106.855529,14.4354167 L105.825914,13.1266667 L105.825914,13.1266667 Z" id="Fill-4" fill="#FFFFFF" sketch:type="MSShapeGroup" mask="url(#mask-2)"></path>
                </g>
                <path d="M41.7062685,13.1266667 L32.4293268,13.1177083 L32.4293268,8.94666667 C32.435572,8.39 32.8981284,7.91645833 33.4499903,7.91645833 L41.7062685,7.91458333 C43.1451479,7.91458333 44.3057023,9.07979167 44.3057023,10.5127083 C44.3057023,11.9614583 43.1451479,13.1266667 41.7062685,13.1266667 L41.7062685,13.1266667 Z M32.4293268,1.58729167 L41.7487354,1.59791667 C43.0548016,1.59791667 44.1108541,2.65833333 44.1108541,3.96708333 C44.1108541,5.26875 43.0548016,6.3275 41.7487354,6.3275 L33.3100992,6.3275 C33.0026304,6.34875 32.6995331,6.41958333 32.4293268,6.53666667 L32.4293268,1.58729167 L32.4293268,1.58729167 Z M44.1285486,7.10770833 C45.0748949,6.38583333 45.695037,5.24916667 45.695037,3.96 C45.695037,1.780625 43.9266226,0.00541666667 41.7435311,0.00541666667 L30.7495934,0 L30.7495934,14.7066667 L41.7062685,14.7066667 C44.0169689,14.7066667 45.8882198,12.8304167 45.8882198,10.5127083 C45.8882198,9.108125 45.1918872,7.86854167 44.1285486,7.10770833 L44.1285486,7.10770833 Z" id="Fill-6" fill="#FFFFFF" sketch:type="MSShapeGroup"></path>
            </g>
        </g>
    </g>
</svg>